<svg id="Layer_1" enable-background="new 0 0 512 512" height="512" viewBox="0 0 512 512" width="512" xmlns="http://www.w3.org/2000/svg">
  <g>
    <path d="m119.851 470.706c28.024 18.767 60.135 31.897 94.717 37.788h82.864c34.583-5.891 66.694-19.021 94.718-37.788l83.97-96.035c15.928-32.5 24.882-69.038 24.882-107.673 0-135.311-109.691-245.002-245.002-245.002s-245.002 109.691-245.002 245.002c0 38.634 8.955 75.172 24.882 107.672z" fill="#ff4155" />
    <path d="m60.447 414.599h391.105c9.902-13.098 18.52-27.219 25.663-42.182v-190.23c0-16.905-13.754-30.659-30.658-30.659h-381.114c-16.905 0-30.659 13.753-30.659 30.659v190.23c7.144 14.962 15.762 29.084 25.663 42.182z" fill="#167cc1" />
    <path d="m126.887 283.063c-9.125-21.495-2.254-43.068 2.304-53.455 1.65-3.762 1.249-8.126-1.124-11.479-10.614-15.002-6.212-32.377-2.79-41.15 1.238-3.174 1.153-6.764-.498-9.744-2.633-4.756-1.771-9.255-.295-12.523.465-1.028.773-2.1.952-3.185h-59.992c-16.905 0-30.659 13.753-30.659 30.659v190.23c7.143 14.963 15.761 29.084 25.663 42.182h87.444c-.566-2.062-1.683-3.987-3.294-5.541-36.895-35.591-5.693-97.684-17.711-125.994z" fill="#0e62a8" />
    <path d="m54.538 406.43c1.917 2.764 3.884 5.489 5.909 8.169h391.105c2.026-2.679 3.992-5.405 5.909-8.168v-39.219c-22-.522-46.18-12.433-74.494-40.747-60.162-60.162-109.779 57.202-210.039-64.919-46.69-56.871-98.254-46.899-118.391-39.724v184.608z" fill="#9bd8f9" />
    <path d="m126.887 283.063c-9.125-21.495-2.254-43.068 2.304-53.455.468-1.067.753-2.184.892-3.312-32.25-15.817-61.521-9.472-75.545-4.474v184.608c1.917 2.764 3.883 5.489 5.909 8.169h87.444c-.566-2.062-1.683-3.986-3.294-5.54-36.894-35.593-5.692-97.686-17.71-125.996z" fill="#73c3f9" />
    <g>
      <path d="m446.557 171.282h-381.113c-5.912 0-10.905 4.994-10.905 10.905v41.431c20.136-7.175 71.7-17.147 118.391 39.724 100.259 122.12 149.876 4.756 210.039 64.919 28.315 28.314 52.495 40.225 74.494 40.747v-186.821c-.001-5.912-4.995-10.905-10.906-10.905z" fill="#e9efff" />
    </g>
    <path d="m54.538 182.187v41.431c13.979-4.981 43.104-11.301 75.229 4.32.904-3.337.329-6.941-1.7-9.809-10.614-15.002-6.212-32.377-2.79-41.15.713-1.827.971-3.791.76-5.698h-60.593c-5.912.001-10.906 4.994-10.906 10.906z" fill="#9bd8f9" />
    <path d="m256 512c16.047 0 31.727-1.56 46.913-4.506-.003-.026-.008-.051-.012-.077l-4.979-37.152h-83.845l-4.979 37.152c-.003.026-.008.051-.012.076 15.187 2.947 30.867 4.507 46.914 4.507z" fill="#d3dcfb" />
    <path d="m244.301 509.536c.906-10.412 9.622-18.403 20.073-18.403h36.346l-2.797-20.867h-83.845l-4.979 37.152c-.003.026-.008.051-.012.076 11.414 2.214 23.107 3.644 35.025 4.219z" fill="#bec8f7" />
    <path d="m59.1 412.803c17.255 23.263 38.536 43.354 62.811 59.259h268.18c24.274-15.905 45.556-35.996 62.811-59.259z" fill="#e9efff" />
    <path d="m121.91 472.062h27.102c2.032-3.584 2.22-8.183-.245-12.114-8.669-13.825-4.919-29.018-1.31-37.84 1.252-3.062 1.103-6.409-.214-9.304h-88.143c17.255 23.262 38.536 43.353 62.81 59.258z" fill="#d3dcfb" />
    <g>
      <path d="m257.046 50.673c-56.226-.566-102.667 45.289-102.784 101.518-.079 38.223 20.922 71.545 52.028 88.997 9.347 5.244 15.068 15.193 15.068 25.911v9.646c0 9.091 7.37 16.462 16.462 16.462h36.361c9.092 0 16.462-7.37 16.462-16.462v-9.647c0-10.766 5.803-20.695 15.185-25.976 30.982-17.438 51.91-50.632 51.91-88.717 0-55.838-44.985-101.171-100.692-101.732z" fill="#ffdd40" />
    </g>
    <path d="m248.5 232.652c-15.905-18.658-26.126-47.761-26.081-80.461.067-48.895 23.432-89.94 54.112-99.444-6.303-1.292-12.816-2.007-19.485-2.074-56.226-.566-102.667 45.289-102.784 101.518-.079 38.223 20.922 71.545 52.028 88.997 9.347 5.245 15.068 15.193 15.068 25.911v9.646c0 9.092 7.37 16.462 16.462 16.462h10.68z" fill="#ffb332" />
    <g>
      <path d="m268.405 348.726h-24.81c-.871 0-1.719-.09-2.549-.233v6.212c0 8.259 6.696 14.954 14.954 14.954 8.259 0 14.954-6.695 14.954-14.954v-6.212c-.829.143-1.678.233-2.549.233z" fill="#4fabf7" />
    </g>
    <g>
      <path d="m268.406 320.778h-24.811c-8.259 0-14.954 6.695-14.954 14.954s6.695 14.954 14.954 14.954h24.811c8.259 0 14.954-6.695 14.954-14.954 0-8.258-6.695-14.954-14.954-14.954z" fill="#2a428c" />
    </g>
    <path d="m256 335.733c0-7.829 6.019-14.242 13.68-14.89-.421-.036-.844-.064-1.274-.064h-24.81c-8.259 0-14.954 6.695-14.954 14.954s6.695 14.954 14.954 14.954h24.81c.43 0 .854-.029 1.274-.064-7.661-.649-13.68-7.062-13.68-14.89z" fill="#1c2e7a" />
    <g>
      <g>
        <path d="m243.604 306.739c-4.142 0-7.5-3.357-7.5-7.5v-66.452c0-3.791-1.811-7.413-4.843-9.688-6.79-5.094-10.844-13.201-10.844-21.688v-39.219c0-4.143 3.358-7.5 7.5-7.5s7.5 3.357 7.5 7.5v39.219c0 3.791 1.811 7.413 4.844 9.688 6.789 5.092 10.843 13.199 10.843 21.688v66.452c0 4.143-3.358 7.5-7.5 7.5z" fill="#ff9100" />
      </g>
    </g>
    <g>
      <g>
        <path d="m268.396 306.739c-4.142 0-7.5-3.357-7.5-7.5v-66.452c0-8.488 4.054-16.596 10.844-21.688 3.033-2.275 4.844-5.897 4.844-9.688v-39.219c0-4.143 3.358-7.5 7.5-7.5s7.5 3.357 7.5 7.5v39.219c0 8.487-4.054 16.595-10.844 21.688-3.034 2.274-4.844 5.896-4.844 9.688v66.452c0 4.143-3.358 7.5-7.5 7.5z" fill="#ff9100" />
      </g>
    </g>
    <g>
      <g>
        <path d="m289.582 178.517h-67.164c-4.142 0-7.5-3.357-7.5-7.5s3.358-7.5 7.5-7.5h67.164c4.142 0 7.5 3.357 7.5 7.5 0 4.142-3.358 7.5-7.5 7.5z" fill="#ffb332" />
      </g>
    </g>
    <g>
      <path d="m132.865 159.905h-21.771c-4.142 0-7.5-3.357-7.5-7.5s3.358-7.5 7.5-7.5h21.771c4.142 0 7.5 3.357 7.5 7.5s-3.358 7.5-7.5 7.5z" fill="#ffdd40" />
    </g>
    <g>
      <path d="m400.906 159.905h-21.77c-4.142 0-7.5-3.357-7.5-7.5s3.358-7.5 7.5-7.5h21.77c4.142 0 7.5 3.357 7.5 7.5s-3.358 7.5-7.5 7.5z" fill="#ffdd40" />
    </g>
    <g>
      <path d="m125.252 206.564c-1.585-3.827.232-8.214 4.059-9.799l10.057-4.166c3.826-1.584 8.214.23 9.799 4.059 1.585 3.827-.232 8.214-4.059 9.799l-10.057 4.166c-3.843 1.591-8.22-.247-9.799-4.059z" fill="#ffb332" />
    </g>
    <g>
      <path d="m362.833 108.154c-1.585-3.827.232-8.214 4.059-9.799l9.475-3.925c3.827-1.584 8.214.231 9.799 4.059 1.585 3.827-.232 8.214-4.059 9.799l-9.475 3.925c-3.842 1.591-8.219-.246-9.799-4.059z" fill="#ffb332" />
    </g>
    <g>
      <path d="m300.081 45.402c-3.827-1.585-5.644-5.972-4.059-9.799l3.925-9.476c1.585-3.827 5.971-5.647 9.799-4.058 3.827 1.585 5.644 5.972 4.059 9.799l-3.925 9.476c-1.585 3.827-5.976 5.645-9.799 4.058z" fill="#ffb332" />
    </g>
    <g>
      <path d="m201.538 41.344-3.925-9.476c-1.585-3.827.232-8.214 4.059-9.799 3.827-1.583 8.214.231 9.799 4.058l3.925 9.476c1.585 3.827-.232 8.214-4.059 9.799-3.842 1.592-8.22-.246-9.799-4.058z" fill="#ffb332" />
    </g>
    <g>
      <path d="m376.367 210.622-10.057-4.166c-3.827-1.585-5.644-5.972-4.059-9.799s5.974-5.647 9.799-4.059l10.057 4.166c3.827 1.585 5.644 5.972 4.059 9.799-1.59 3.841-5.99 5.641-9.799 4.059z" fill="#ffb332" />
    </g>
    <g>
      <path d="m138.786 112.213-9.475-3.925c-3.827-1.585-5.644-5.972-4.059-9.799 1.585-3.826 5.973-5.649 9.799-4.059l9.475 3.925c3.827 1.585 5.644 5.972 4.059 9.799-1.588 3.834-5.983 5.643-9.799 4.059z" fill="#ffb332" />
    </g>
    <g>
      <path d="m148.232 260.172c-2.929-2.929-2.928-7.678 0-10.607l15.395-15.393c2.929-2.928 7.678-2.929 10.607.001 2.929 2.929 2.928 7.678-.001 10.606l-15.395 15.394c-2.928 2.928-7.676 2.929-10.606-.001z" fill="#ffdd40" />
    </g>
    <g>
      <path d="m337.767 70.639c-2.929-2.929-2.929-7.677 0-10.607l15.394-15.394c2.929-2.928 7.678-2.929 10.606.001 2.929 2.929 2.929 7.677 0 10.606l-15.394 15.395c-2.929 2.928-7.678 2.928-10.606-.001z" fill="#ffdd40" />
    </g>
    <g>
      <path d="m256 36.771c-4.142 0-7.5-3.357-7.5-7.5v-21.771c0-4.143 3.358-7.5 7.5-7.5s7.5 3.357 7.5 7.5v21.771c0 4.142-3.358 7.5-7.5 7.5z" fill="#ffdd40" />
    </g>
    <g>
      <path d="m353.161 260.173-15.394-15.394c-2.929-2.93-2.929-7.678 0-10.606 2.929-2.93 7.678-2.929 10.607-.001l15.394 15.393c2.929 2.93 2.929 7.678 0 10.607s-7.677 2.93-10.607.001z" fill="#ffdd40" />
    </g>
    <g>
      <path d="m163.628 70.64-15.395-15.394c-2.929-2.929-2.929-7.678 0-10.606 2.93-2.93 7.677-2.929 10.607-.001l15.395 15.394c2.929 2.929 2.929 7.678.001 10.607-2.931 2.928-7.678 2.928-10.608 0z" fill="#ffdd40" />
    </g>
    <ellipse cx="256" cy="442.432" fill="#bec8f7" rx="13.217" ry="13.217" transform="matrix(.23 -.973 .973 .23 -233.413 589.935)" />
    <g>
      <path d="m275.689 291.85h-39.376c-8.259 0-14.954 6.695-14.954 14.954s6.695 14.954 14.954 14.954h39.376c8.259 0 14.954-6.695 14.954-14.954s-6.695-14.954-14.954-14.954z" fill="#3c58a0" />
    </g>
    <path d="m256 306.804c0-8.259 6.695-14.954 14.955-14.954h-34.643c-8.259 0-14.954 6.695-14.954 14.954s6.695 14.954 14.954 14.954h34.643c-8.26.001-14.955-6.695-14.955-14.954z" fill="#2a428c" />
    <g fill="#fcf2c8">
      <ellipse cx="298.902" cy="100.719" rx="16.833" ry="16.833" transform="matrix(.23 -.973 .973 .23 132.203 368.484)" />
      <ellipse cx="271.735" cy="121.82" rx="9.034" ry="9.034" transform="matrix(.924 -.383 .383 .924 -25.934 113.262)" />
    </g>
  </g>
</svg>
